<svg xmlns="http://www.w3.org/2000/svg" aria-hidden="true" style="position:absolute;width:0;height:0;overflow:hidden"><defs>
<symbol id="icon-signature" viewBox="0 0 32 32">
<path d="M25.706 0.113c-0.506 0.181-0.956 0.563-1.244 1.050-0.1 0.163-0.444 1.375-0.956 3.344-1.262 4.825-4.356 16.656-4.663 17.844-0.156 0.587-0.281 1.156-0.281 1.269 0 0.238 0.238 0.506 0.444 0.506 0.119 0 0.1 0.038-0.156 0.331-0.163 0.175-0.363 0.431-0.456 0.556l-0.163 0.238 0.3 2.262c0.169 1.25 0.325 2.331 0.35 2.406 0.081 0.219 0.331 0.35 0.587 0.306 0.206-0.044 0.337-0.194 1.625-1.919 1.575-2.094 1.5-1.944 1.313-2.806-0.050-0.225-0.087-0.425-0.094-0.444 0-0.019 0.125-0.031 0.281-0.031 0.2 0.006 0.313-0.025 0.4-0.119s0.863-2.962 2.85-10.594c1.506-5.756 2.744-10.475 2.75-10.488 0.025-0.025 0.806 0.175 0.9 0.231 0.063 0.037-0.156 0.944-0.925 3.894-0.556 2.119-1.006 3.95-1.006 4.075 0 0.294 0.175 0.475 0.475 0.475 0.288 0 0.431-0.081 0.512-0.294 0.144-0.369 2.2-8.375 2.2-8.569 0-0.231-0.169-0.425-0.419-0.487-0.1-0.025-0.456-0.119-0.8-0.212l-0.625-0.169-0.038-0.525c-0.063-0.919-0.531-1.65-1.288-2.025-0.475-0.237-1.363-0.287-1.875-0.106zM27.131 1.206c0.15 0.081 0.356 0.262 0.456 0.406 0.344 0.481 0.331 0.544-0.606 4.125-0.462 1.763-0.856 3.225-0.875 3.237-0.031 0.031-2.406-0.569-2.462-0.619-0.031-0.037 1.569-6.206 1.681-6.506 0.269-0.681 1.137-0.994 1.806-0.644zM25.462 9.95c0.163 0.044 0.313 0.106 0.331 0.144 0.019 0.063-2.956 11.587-3.012 11.644-0.006 0.006-0.575-0.131-1.262-0.313l-1.244-0.331 1.531-5.85 1.531-5.844 0.906 0.238c0.5 0.131 1.050 0.275 1.219 0.313zM22.456 22.806c0.025 0.025-0.012 0.275-0.087 0.55l-0.137 0.5-1.225-0.313c-0.675-0.175-1.238-0.325-1.25-0.331-0.019-0.019 0.038-0.275 0.188-0.844l0.056-0.231 1.206 0.313c0.656 0.169 1.219 0.331 1.25 0.356zM21.063 24.688c0.056 0.031 0.144 0.306 0.225 0.712l0.131 0.663-0.85 1.137-0.85 1.131-0.169-1.244c-0.087-0.681-0.169-1.319-0.169-1.406-0.006-0.113 0.131-0.319 0.45-0.688l0.45-0.538 0.344 0.094c0.188 0.044 0.387 0.113 0.438 0.137z"></path>
<path d="M19.938 25.794c-0.369 0.475 0.294 1.044 0.719 0.613 0.188-0.188 0.2-0.4 0.025-0.619-0.181-0.231-0.556-0.231-0.744 0.006z"></path>
<path d="M4.906 26.056c-0.75 0.194-1.4 0.881-1.625 1.712-0.212 0.794-0.050 1.913 0.375 2.556l0.156 0.238-0.175 0.087c-0.375 0.194-0.856 0.288-1.462 0.288-0.575 0-0.631 0.012-0.769 0.156-0.212 0.206-0.212 0.544 0.006 0.762 0.156 0.156 0.163 0.156 0.981 0.125 0.881-0.031 1.4-0.163 2.025-0.512 0.263-0.144 0.294-0.15 0.456-0.063 0.1 0.050 0.356 0.137 0.575 0.188 1.1 0.256 2.269-0.081 2.987-0.863 0.806-0.875 0.919-0.981 1.075-0.981 0.169 0 0.206 0.056 0.456 0.688 0.3 0.762 0.881 1.156 1.481 0.994 0.125-0.031 0.369-0.156 0.544-0.275l0.319-0.225 0.425 0.188c0.694 0.3 1.106 0.394 1.756 0.394 1.031 0.006 1.981-0.344 2.669-0.969s0.844-0.981 0.581-1.319c-0.1-0.125-0.181-0.163-0.381-0.163-0.231 0-0.288 0.038-0.669 0.431-0.956 0.994-2.175 1.225-3.463 0.656-0.806-0.35-1.162-0.344-1.75 0.044-0.156 0.106-0.319 0.175-0.35 0.156s-0.144-0.262-0.256-0.544c-0.113-0.281-0.275-0.587-0.363-0.694-0.219-0.262-0.581-0.425-0.938-0.425-0.619 0-0.975 0.212-1.638 0.981-0.563 0.656-0.938 0.875-1.563 0.931-0.225 0.019-0.475 0.012-0.55-0.019l-0.15-0.056 0.231-0.275c0.681-0.819 1.031-1.881 0.9-2.788-0.088-0.637-0.344-1.038-0.831-1.288-0.269-0.137-0.781-0.194-1.069-0.119zM5.456 27.119c0.25 0.094 0.381 0.556 0.287 1.031-0.075 0.431-0.431 1.137-0.756 1.5l-0.263 0.3-0.106-0.131c-0.244-0.3-0.381-0.825-0.356-1.319 0.044-0.669 0.275-1.081 0.769-1.337 0.219-0.119 0.225-0.119 0.425-0.044z"></path>
</symbol>

<symbol id="icon-party" viewBox="0 0 32 32">
<path d="M26.831 0.231c-0.069 0.063-0.238 0.362-0.369 0.669-0.281 0.644-0.406 0.762-1.119 1.081-0.575 0.25-0.719 0.387-0.719 0.669 0 0.3 0.113 0.406 0.819 0.75l0.65 0.319 0.319 0.644c0.375 0.75 0.413 0.8 0.631 0.856 0.344 0.081 0.512-0.069 0.831-0.744 0.163-0.35 0.35-0.681 0.413-0.737 0.069-0.056 0.387-0.231 0.719-0.381 0.438-0.206 0.613-0.319 0.669-0.444 0.181-0.4 0.038-0.6-0.7-0.944-0.313-0.144-0.631-0.331-0.706-0.413-0.075-0.087-0.244-0.375-0.369-0.65s-0.288-0.563-0.356-0.644c-0.156-0.169-0.538-0.188-0.712-0.031zM27.506 2.331l0.337 0.325-0.7 0.7-0.119-0.181c-0.063-0.1-0.212-0.25-0.325-0.337l-0.2-0.156 0.325-0.331c0.181-0.188 0.331-0.337 0.337-0.344 0 0 0.156 0.144 0.344 0.325z"></path>
<path d="M10.606 1.375c-0.594 0.15-1.144 0.6-1.419 1.156-0.131 0.269-0.156 0.4-0.156 0.938 0 0.563 0.019 0.656 0.175 0.956 0.831 1.581 3.088 1.55 3.85-0.050 0.137-0.294 0.162-0.431 0.162-0.906s-0.025-0.619-0.162-0.913c-0.338-0.719-1-1.169-1.787-1.212-0.231-0.012-0.531 0-0.662 0.031zM11.706 2.6c0.481 0.319 0.606 0.956 0.275 1.456-0.213 0.319-0.531 0.463-0.95 0.431-0.406-0.031-0.694-0.231-0.85-0.575-0.15-0.331-0.15-0.606 0-0.9s0.313-0.438 0.613-0.55c0.3-0.106 0.606-0.063 0.912 0.138z"></path>
<path d="M20.481 1.375c-1.587 0.4-2.181 2.331-1.087 3.544 0.475 0.519 1.25 0.781 1.95 0.644 0.731-0.144 1.269-0.563 1.581-1.244 0.35-0.75 0.156-1.781-0.444-2.369-0.494-0.481-1.363-0.731-2-0.575zM21.2 2.438c0.913 0.256 1.094 1.388 0.306 1.919-0.25 0.169-0.725 0.194-0.994 0.056-0.363-0.188-0.587-0.544-0.587-0.944 0-0.456 0.281-0.837 0.744-1 0.294-0.106 0.256-0.106 0.531-0.031z"></path>
<path d="M15.344 4.406c-0.206 0.2-0.2 0.394 0.031 0.975 0.506 1.3 0.481 2.75-0.063 4.375-0.294 0.881-1.037 2.394-1.156 2.344-0.044-0.012-0.313-0.194-0.6-0.4-1.156-0.819-2.219-1.369-3.037-1.581-0.819-0.206-1.313-0.137-1.713 0.244-0.219 0.213-0.613 1.113-4.506 10.45-2.688 6.45-4.269 10.319-4.287 10.488-0.031 0.35 0.15 0.575 0.469 0.575 0.131 0 3.875-1.525 10.506-4.288 9.619-4.006 10.306-4.3 10.525-4.531 0.712-0.769 0.331-2.225-1.156-4.462-0.206-0.313-0.469-0.681-0.594-0.831-0.119-0.15-0.206-0.275-0.194-0.288 0.475-0.381 1.775-1.063 2.494-1.306 0.863-0.294 1.381-0.369 2.425-0.344 0.944 0.019 0.962 0.019 1.081-0.131 0.144-0.175 0.156-0.488 0.025-0.675-0.144-0.206-0.531-0.287-1.406-0.287-1.6 0-3.125 0.481-4.744 1.506l-0.587 0.369-0.5-0.569c-0.669-0.75-2-2.069-2.713-2.688l-0.575-0.494 0.188-0.319c0.787-1.35 1.325-2.825 1.5-4.144 0.106-0.813 0.038-2.037-0.156-2.744-0.2-0.725-0.431-1.244-0.587-1.331-0.219-0.119-0.506-0.081-0.669 0.088zM10.625 11.294c0.225 0.081 0.619 0.262 0.875 0.406 0.531 0.287 1.881 1.188 2 1.331 0.069 0.081 0.019 0.175-0.287 0.563-0.806 1.031-0.794 1.006-0.619 1.338 0.1 0.206 0.206 0.256 0.494 0.256 0.231 0 0.494-0.244 1.063-0.988 0.162-0.219 0.325-0.387 0.35-0.375 0.162 0.056 1.95 1.769 2.663 2.544l0.837 0.913-0.375 0.344c-0.3 0.269-0.387 0.394-0.419 0.575-0.031 0.2-0.006 0.256 0.156 0.425 0.288 0.281 0.488 0.256 0.925-0.125 0.194-0.175 0.375-0.313 0.4-0.313 0.119 0 1.2 1.644 1.587 2.419 0.356 0.712 0.488 1.119 0.462 1.462-0.019 0.275-0.019 0.275-0.275 0.294-0.881 0.063-3.025-1.225-5.15-3.087-2.219-1.956-4.306-4.431-5.256-6.238-0.519-0.988-0.719-1.856-0.444-1.931 0.175-0.050 0.581 0.025 1.012 0.188zM9.713 14.625c1.369 2.113 4.106 5.006 6.294 6.644 0.238 0.175 0.419 0.331 0.406 0.344s-0.444-0.137-0.95-0.325c-0.512-0.194-0.988-0.35-1.063-0.35s-0.206 0.056-0.287 0.125c-0.306 0.238-0.256 0.731 0.094 0.894 0.75 0.356 2.050 0.788 3.294 1.1l0.944 0.238-1.613 0.669-1.606 0.663-0.787-0.225c-2.119-0.619-4.338-1.625-6.469-2.95-1.006-0.619-2.094-1.387-2.094-1.475 0-0.075 0.906-2.275 0.956-2.331 0.019-0.012 0.306 0.181 0.65 0.431 0.906 0.688 1.7 1.225 2.644 1.8 1.075 0.663 2.438 1.375 2.619 1.375 0.2 0 0.506-0.325 0.506-0.544 0-0.294-0.15-0.425-0.95-0.85-1.406-0.738-2.813-1.637-4.244-2.712l-0.787-0.594 0.75-1.806 0.756-1.8 0.319 0.606c0.175 0.331 0.456 0.819 0.619 1.075zM6.625 21.881c2.037 1.356 4.094 2.394 6.213 3.15 0.619 0.219 0.725 0.275 0.625 0.325-0.063 0.038-0.75 0.325-1.519 0.644l-1.394 0.581-0.825-0.325c-0.45-0.181-1.3-0.569-1.894-0.856-1.156-0.563-1.381-0.619-1.625-0.387-0.181 0.169-0.2 0.556-0.031 0.725 0.144 0.144 1.206 0.694 2.156 1.113 0.406 0.175 0.719 0.337 0.688 0.356-0.031 0.025-0.675 0.294-1.431 0.613-0.75 0.313-1.388 0.581-1.412 0.594-0.050 0.031-1.838-0.863-2.594-1.3l-0.569-0.337 0.469-1.137c0.263-0.625 0.5-1.137 0.525-1.137 0.031 0 0.188 0.081 0.35 0.188 0.344 0.219 0.625 0.238 0.819 0.063 0.338-0.319 0.231-0.681-0.3-1.025-0.206-0.131-0.394-0.269-0.412-0.3s0.181-0.575 0.45-1.206l0.481-1.156 0.162 0.106c0.088 0.063 0.569 0.381 1.069 0.712zM2.95 28.012c0.181 0.106 0.669 0.369 1.081 0.587 0.688 0.363 0.731 0.4 0.594 0.45-0.088 0.038-0.8 0.331-1.587 0.663s-1.444 0.587-1.456 0.575c-0.025-0.025 0.981-2.475 1.019-2.475 0.013 0 0.169 0.087 0.35 0.2z"></path>
<path d="M4.269 7.094c-0.069 0.050-0.275 0.388-0.45 0.75l-0.319 0.656-0.656 0.319c-0.688 0.338-0.844 0.475-0.844 0.744 0 0.275 0.169 0.419 0.844 0.75l0.656 0.313 0.313 0.656c0.331 0.675 0.475 0.844 0.75 0.844s0.419-0.169 0.75-0.844l0.313-0.656 0.656-0.313c0.675-0.331 0.844-0.475 0.844-0.75 0-0.269-0.156-0.406-0.844-0.744l-0.656-0.319-0.313-0.656c-0.175-0.356-0.381-0.694-0.456-0.75-0.169-0.119-0.412-0.119-0.588 0zM4.888 9.219l0.344 0.344-0.338 0.331-0.331 0.338-0.669-0.669 0.319-0.338c0.175-0.181 0.319-0.338 0.325-0.344 0.006 0 0.162 0.15 0.35 0.338z"></path>
<path d="M20.631 7.356c-0.087 0.075-0.181 0.281-0.256 0.588-0.431 1.669-1.363 3.288-2.919 5.044-0.369 0.419-0.456 0.55-0.456 0.719 0 0.387 0.406 0.644 0.756 0.475 0.425-0.206 1.819-1.95 2.5-3.131 0.619-1.075 1.244-2.719 1.244-3.281 0-0.431-0.531-0.681-0.869-0.412z"></path>
<path d="M27.275 8.556c-1.594 0.431-3.488 1.594-5.106 3.138-0.438 0.419-0.481 0.488-0.481 0.7 0 0.319 0.219 0.544 0.525 0.544 0.194 0 0.3-0.069 0.738-0.475 1.669-1.544 3.212-2.469 4.875-2.931 0.288-0.075 0.381-0.131 0.462-0.287 0.113-0.219 0.075-0.494-0.094-0.644-0.175-0.156-0.444-0.169-0.919-0.044z"></path>
<path d="M29.194 11.081c-0.1 0.050-0.231 0.25-0.381 0.594-0.344 0.775-0.425 0.856-1.15 1.2-0.356 0.162-0.663 0.344-0.681 0.406-0.069 0.169-0.050 0.5 0.038 0.613 0.038 0.056 0.344 0.225 0.675 0.381 0.688 0.319 0.8 0.431 1.125 1.188 0.225 0.525 0.356 0.662 0.637 0.662 0.306 0 0.419-0.119 0.706-0.738 0.156-0.331 0.331-0.656 0.387-0.725 0.056-0.063 0.375-0.238 0.7-0.394 0.325-0.15 0.631-0.319 0.675-0.375 0.038-0.056 0.075-0.206 0.075-0.331s-0.038-0.275-0.075-0.331c-0.044-0.056-0.35-0.225-0.675-0.375-0.325-0.156-0.644-0.331-0.7-0.4-0.063-0.063-0.238-0.387-0.394-0.725-0.15-0.331-0.337-0.631-0.4-0.669-0.163-0.081-0.375-0.081-0.563 0.019zM29.806 13.875c-0.169 0.169-0.306 0.338-0.306 0.381s-0.081-0.037-0.181-0.175c-0.1-0.137-0.256-0.306-0.35-0.369l-0.169-0.125 0.331-0.344 0.337-0.344 0.65 0.662-0.313 0.313z"></path>
<path d="M26.269 20.113c-0.931 0.331-1.456 1.069-1.456 2.050 0 0.781 0.45 1.519 1.156 1.887 0.281 0.15 0.381 0.169 0.969 0.169s0.688-0.019 0.969-0.169c0.387-0.2 0.806-0.644 0.988-1.038 0.113-0.238 0.137-0.413 0.137-0.887 0-0.669-0.106-0.962-0.506-1.425-0.494-0.581-1.525-0.85-2.256-0.587zM27.35 21.181c0.644 0.294 0.837 1.087 0.387 1.606-0.381 0.438-0.863 0.525-1.337 0.244-0.731-0.431-0.663-1.494 0.125-1.85 0.325-0.144 0.5-0.144 0.825 0z"></path>
<path d="M18.481 25.756c-0.063 0.038-0.244 0.337-0.394 0.669-0.156 0.331-0.331 0.656-0.387 0.719-0.056 0.069-0.387 0.256-0.738 0.419-0.538 0.25-0.644 0.325-0.7 0.494-0.050 0.137-0.050 0.25 0 0.387 0.056 0.169 0.163 0.244 0.7 0.494 0.35 0.163 0.681 0.35 0.738 0.419 0.056 0.063 0.231 0.387 0.387 0.719 0.275 0.594 0.4 0.738 0.663 0.738 0.3 0 0.469-0.169 0.681-0.669 0.325-0.75 0.438-0.863 1.125-1.181 0.331-0.156 0.637-0.325 0.681-0.381 0.081-0.113 0.1-0.444 0.031-0.613-0.019-0.063-0.325-0.244-0.675-0.406-0.456-0.212-0.688-0.363-0.806-0.512-0.087-0.119-0.163-0.238-0.163-0.256s-0.1-0.244-0.225-0.5c-0.225-0.469-0.375-0.606-0.669-0.606-0.075 0-0.188 0.031-0.25 0.069zM19.1 28.575l-0.325 0.331-0.325-0.331-0.325-0.325 0.325-0.331 0.325-0.325 0.656 0.656-0.331 0.325z"></path>
</symbol>

<symbol id="icon-speaker" viewBox="0 0 32 32">
<path d="M14.838 0.087c-2.031 0.463-3.644 2.094-4.094 4.131-0.119 0.544-0.1 1.844 0.031 2.344 0.262 0.994 0.669 1.744 1.35 2.456 2.306 2.438 6.281 2.169 8.225-0.556 0.356-0.5 0.731-1.306 0.875-1.9 0.137-0.563 0.156-1.775 0.031-2.344-0.419-1.913-1.813-3.425-3.725-4.031-0.556-0.181-2.094-0.237-2.694-0.1zM16.881 2.163c1.212 0.356 2.156 1.419 2.369 2.663 0.331 1.925-1.269 3.8-3.25 3.8s-3.581-1.875-3.25-3.8c0.15-0.913 0.8-1.869 1.556-2.313 0.738-0.438 1.794-0.581 2.575-0.35z"></path>
<path d="M23.762 8.194c-1.462 0.731-1.5 2.806-0.069 3.588 0.438 0.238 1.137 0.287 1.681 0.125l0.369-0.113 0.45 0.369c1.413 1.15 2.444 3 2.706 4.85l0.044 0.3h-1.988l-0.081-0.363c-0.5-2.262-2.181-4.050-4.469-4.744l-0.563-0.175h-11.688l-0.563 0.175c-2.037 0.631-3.588 2.094-4.256 4.006-0.106 0.313-0.219 0.688-0.244 0.831l-0.044 0.269h-2.15c-2.019 0-2.169 0.006-2.394 0.125-0.138 0.069-0.3 0.219-0.375 0.331-0.275 0.444-0.25 0.531 1.225 4.581 0.744 2.050 1.413 3.813 1.481 3.925 0.281 0.413 0.281 0.413 3.175 0.413h2.6l0.037 0.175c0.019 0.094 0.181 1.125 0.356 2.294s0.363 2.219 0.419 2.331c0.144 0.319 0.475 0.513 0.875 0.513 0.563 0 0.975-0.331 1.037-0.831 0.025-0.175-0.156-1.506-0.544-4.012l-0.581-3.75 2.894-0.019c1.594-0.006 4.194-0.006 5.787 0l2.894 0.019-0.581 3.75c-0.325 2.1-0.569 3.856-0.556 3.994 0.056 0.5 0.488 0.85 1.031 0.85 0.431 0 0.744-0.188 0.9-0.544 0.056-0.131 0.244-1.181 0.419-2.331s0.331-2.169 0.35-2.262l0.038-0.175h2.6c2.894 0 2.894 0 3.175-0.413 0.069-0.113 0.738-1.875 1.481-3.925 1.475-4.050 1.5-4.137 1.225-4.581-0.137-0.212-0.519-0.456-0.731-0.456-0.106 0-0.131-0.075-0.194-0.563-0.238-1.863-1.069-3.681-2.344-5.137-0.431-0.494-1.212-1.2-1.7-1.537-0.156-0.106-0.206-0.194-0.231-0.419-0.056-0.412-0.306-0.85-0.669-1.175-0.394-0.35-0.756-0.481-1.375-0.481-0.413 0-0.538 0.025-0.863 0.194zM21.625 14.137c1.156 0.325 2.069 0.969 2.656 1.887 0.206 0.325 0.531 1.075 0.531 1.225 0 0.044-3.119 0.063-8.813 0.063s-8.813-0.019-8.813-0.063c0-0.131 0.306-0.875 0.469-1.131 0.575-0.919 1.556-1.669 2.537-1.931 0.575-0.156 1.225-0.175 6.088-0.162 4.288 0.012 5.050 0.031 5.344 0.113zM29.488 19.45c-0.019 0.044-0.444 1.225-0.956 2.625l-0.925 2.55h-3.931l0.038-0.169c0.106-0.525 0.288-1.869 0.288-2.15 0-0.406-0.169-0.7-0.506-0.869-0.231-0.125-0.4-0.125-7.494-0.125s-7.262 0-7.494 0.125c-0.338 0.169-0.506 0.462-0.506 0.869 0 0.281 0.181 1.625 0.287 2.144l0.037 0.175h-3.931l-0.925-2.55c-0.513-1.4-0.938-2.581-0.956-2.625-0.019-0.056 2.706-0.075 13.488-0.075s13.506 0.019 13.488 0.075z"></path>
</symbol>

<symbol id="icon-pin" viewBox="0 0 32 32">
<path d="M14.875 0.044c-0.088 0.012-0.369 0.069-0.625 0.119-3.238 0.681-5.8 3.362-6.344 6.638-0.156 0.944-0.106 2.494 0.113 3.356 0.794 3.113 3.269 5.481 6.331 6.069 0.306 0.056 0.594 0.113 0.637 0.125 0.056 0.019 0.075 1.575 0.075 7.538 0 7.262 0.006 7.525 0.119 7.7 0.188 0.288 0.438 0.412 0.806 0.412 0.4 0 0.656-0.131 0.844-0.438l0.137-0.219 0.019-7.5 0.012-7.506 0.506-0.075c2.381-0.375 4.688-2.106 5.825-4.369 0.962-1.906 1.144-4.25 0.481-6.275-0.931-2.85-3.438-5.013-6.4-5.525-0.506-0.087-2.106-0.119-2.537-0.050zM16.719 1.962c0.913 0.075 2.15 0.556 2.969 1.163 3.063 2.269 3.456 6.613 0.85 9.356-2.5 2.637-6.606 2.631-9.1-0.019-0.7-0.744-1.219-1.662-1.512-2.681-0.125-0.438-0.144-0.637-0.144-1.594 0-0.95 0.019-1.156 0.144-1.594 0.188-0.662 0.675-1.65 1.063-2.156 1.075-1.413 2.744-2.35 4.444-2.494 0.294-0.025 0.606-0.038 0.694-0.031 0.087 0.012 0.356 0.031 0.594 0.050z"></path>
<path d="M15.594 3.163c-0.956 0.094-2.125 0.569-2.806 1.137-0.994 0.825-1.625 2.013-1.787 3.344-0.125 1.013 0.175 1.481 0.956 1.481 0.331 0 0.381-0.019 0.613-0.238 0.244-0.225 0.256-0.25 0.344-0.875 0.131-0.969 0.4-1.513 1.019-2.094 0.475-0.444 1.081-0.706 1.881-0.819 0.638-0.088 0.662-0.1 0.888-0.344 0.219-0.231 0.238-0.281 0.238-0.606 0-0.725-0.469-1.069-1.344-0.987z"></path>
</symbol></defs></svg>